<?xml version="1.0" encoding="UTF-8" standalone="yes"?><svg xmlns="http://www.w3.org/2000/svg" viewBox="0 0 512 512"><defs><mask id="1643976889950mask"><path  d="M 64 128 L 64 384 Q 64 448 128 448 L 384 448 Q 448 448 448 384 L 448 128 Q 448 64 384 64 L 128 64 Q 64 64 64 128 Z" fill="#ffffff" stroke="#ffffff" stroke-width="0" /><path  d="M 128 207 L 128 305 Q 128 320 139 331 L 181 373 Q 192 384 207 384 L 305 384 Q 320 384 331 373 L 373 331 Q 384 320 384 305 L 384 207 Q 384 192 373 181 L 331 139 Q 320 128 305 128 L 207 128 Q 192 128 181 139 L 139 181 Q 128 192 128 207 Z" fill="#000000" stroke="#000000" stroke-width="1" /></mask></defs><path mask="url(#1643976889950mask)" d="M 64 128 L 64 384 Q 64 448 128 448 L 384 448 Q 448 448 448 384 L 448 128 Q 448 64 384 64 L 128 64 Q 64 64 64 128 Z" fill="#575757" /></svg>