<?xml version="1.0" encoding="UTF-8" standalone="yes"?><svg xmlns="http://www.w3.org/2000/svg" viewBox="0 0 512 512"><rect  x="64" y="32" width="416" height="416" fill="#ffffff" /><defs><mask id="1642269685836mask"><path  d="M 32 42 L 32 470 Q 32 480 42 480 L 470 480 Q 480 480 480 470 L 480 42 Q 480 32 470 32 L 42 32 Q 32 32 32 42 Z" fill="#ffffff" stroke="#ffffff" stroke-width="20" /><circle  cx="256" cy="256" r="128" fill="#000000" stroke="#000000" stroke-width="1" /><ellipse cx="416" cy="208" rx="71.41038377516212" ry="50.440667904678016" fill="#000000" stroke="#000000" stroke-width="1" transform="rotate(22.932100437589785,416,208)" /><ellipse cx="400" cy="96" rx="115.19999999999997" ry="57.6" fill="#000000" stroke="#000000" stroke-width="1" transform="rotate(330.0863540084651,400,96)" /></mask></defs><path mask="url(#1642269685836mask)" d="M 32 42 L 32 470 Q 32 480 42 480 L 470 480 Q 480 480 480 470 L 480 42 Q 480 32 470 32 L 42 32 Q 32 32 32 42 Z" fill="#575757" stroke="#ffffff" stroke-width="20" /><defs><mask id="1642270074493mask"><path  d="M 135.8086880944303 265.7530495244558 L 280.1913119055697 150.24695047554425 Q 288 144 280.1913119055697 137.75304952445575 L 135.8086880944303 22.246950475544242 Q 128 16 136.94427190999915 11.52786404500042 Q 192 -16 312 74 Q 320 80 327.0710678118655 72.92893218813452 Q 384 16 438 16 Q 448 16 458 16 Q 512 16 512 70 Q 512 80 506.4529980377477 88.32050294337844 Q 480 128 425.70142500145334 141.57464374963666 Q 416 144 425.70142500145334 146.42535625036334 Q 480 160 506.4529980377477 199.67949705662156 Q 512 208 512 218 Q 512 272 458 272 Q 448 272 438 272 Q 384 272 327.0710678118655 215.07106781186548 Q 320 208 312 214 Q 192 304 136.94427190999915 276.4721359549996 Q 128 272 135.8086880944303 265.7530495244558 Z" fill="#ffffff" stroke="#ffffff" stroke-width="10" /><ellipse cx="416" cy="80" rx="60" ry="30" fill="#000000" stroke="#000000" stroke-width="1" transform="rotate(336.5014343240479,416,80)" /><ellipse cx="416" cy="208" rx="60" ry="30" fill="#000000" stroke="#000000" stroke-width="1" transform="rotate(23.49856567595208,416,208)" /></mask></defs><path mask="url(#1642270074493mask)" d="M 135.8086880944303 265.7530495244558 L 280.1913119055697 150.24695047554425 Q 288 144 280.1913119055697 137.75304952445575 L 135.8086880944303 22.246950475544242 Q 128 16 136.94427190999915 11.52786404500042 Q 192 -16 312 74 Q 320 80 327.0710678118655 72.92893218813452 Q 384 16 438 16 Q 448 16 458 16 Q 512 16 512 70 Q 512 80 506.4529980377477 88.32050294337844 Q 480 128 425.70142500145334 141.57464374963666 Q 416 144 425.70142500145334 146.42535625036334 Q 480 160 506.4529980377477 199.67949705662156 Q 512 208 512 218 Q 512 272 458 272 Q 448 272 438 272 Q 384 272 327.0710678118655 215.07106781186548 Q 320 208 312 214 Q 192 304 136.94427190999915 276.4721359549996 Q 128 272 135.8086880944303 265.7530495244558 Z" fill="#307ffd" stroke="#ffffff" stroke-width="10" /></svg>