<?xml version="1.0" encoding="UTF-8" standalone="yes"?>
<svg xmlns="http://www.w3.org/2000/svg" viewBox="0 0 512 512">
    <defs>
        <radialGradient id="grad1" cx="20%" cy="20%" r="70%" fx="50%" fy="50%">
            <stop offset="20%" style="stop-color:rgb(190, 190, 190);" />
            <stop offset="90%" style="stop-color:rgb(163, 163, 163);" />
        </radialGradient>
    </defs>
    <defs>
        <mask id="1678043509554mask">
            <path
                d="M 298 10 L 364 10 Q 379 10 379 25 L 379 283 Q 379 298 368 309 L 342 335 Q 331 346 320 335 L 294 309 Q 283 298 283 283 L 283 25 Q 283 10 298 10 Z"
                fill="#ffffff" stroke="#ffffff" stroke-width="0" />
            <path
                d="M -91 399 A 160 160 0 0 1 229 399 Q 229 404 244 404 L 246 404 Q 261 404 261 399 A 192 192 0 0 0 -123 399 Q -123 404 -108 404 L -106 404 Q -91 404 -91 399 Z"
                fill="#000000" stroke="#000000" stroke-width="1" />
            <rect x="203" y="58" width="256" height="32" fill="#000000" stroke="#000000" stroke-width="1" />
        </mask>
    </defs>
    <path mask="url(#1678043509554mask)"
        d="M 298 10 L 364 10 Q 379 10 379 25 L 379 283 Q 379 298 368 309 L 342 335 Q 331 346 320 335 L 294 309 Q 283 298 283 283 L 283 25 Q 283 10 298 10 Z"
        fill="url(#grad1)" transform="rotate(45,331,178)" />
    <defs>
        <mask id="1678043884371mask">
            <path
                d="M 143 215 Q 182 134 196 128 Q 208 123 220 130 Q 233 137 271 216 Q 277 230 292 232 Q 366 240 390 253 Q 403 260 399 275 Q 394 294 332 351 Q 321 361 324 376 Q 339 459 335 477 Q 331 492 316 493 Q 291 496 222 453 Q 209 445 196 452 Q 118 496 98 494 Q 83 493 80 478 Q 74 450 89 377 Q 92 362 81 352 Q 19 297 15 271 Q 13 256 26 249 Q 50 237 121 230 Q 136 229 143 215 Z"
                fill="#ffffff" stroke="#ffffff" stroke-width="0" />
            <rect x="272" y="9" width="160" height="296" fill="#000000" stroke="#000000" stroke-width="1"
                transform="rotate(45,352,157)" />
            <path
                d="M 136.54898987322343 257.4700397382139 L 207 332 Q 217.25609665440984 343.43198051533955 227 332 L 296.5489898732234 257.4700397382139 L 296.5489898732234 241.47003973821393 L 136.54898987322343 241.47003973821393 L 136.54898987322343 257.4700397382139 Z"
                fill="#000000" stroke="#000000" stroke-width="1"
                transform="rotate(45,216.5489898732234,292.45101012677674)" />
        </mask>
    </defs>
    <path mask="url(#1678043884371mask)"
        d="M 143 215 Q 182 134 196 128 Q 208 123 220 130 Q 233 137 271 216 Q 277 230 292 232 Q 366 240 390 253 Q 403 260 399 275 Q 394 294 332 351 Q 321 361 324 376 Q 339 459 335 477 Q 331 492 316 493 Q 291 496 222 453 Q 209 445 196 452 Q 118 496 98 494 Q 83 493 80 478 Q 74 450 89 377 Q 92 362 81 352 Q 19 297 15 271 Q 13 256 26 249 Q 50 237 121 230 Q 136 229 143 215 Z"
        fill="url(#grad1)" />
</svg>