<?xml version="1.0" encoding="UTF-8" standalone="yes"?><svg xmlns="http://www.w3.org/2000/svg" viewBox="0 0 512 512"><rect  x="0" y="12" width="100" height="100" fill="#e0bbe4" transform="rotate(34.93931020467703,50,62)" /><ellipse cx="128" cy="32" rx="60" ry="30" fill="#bee8b7" transform="rotate(123.17851165939274,128,32)" /><circle  cx="127" cy="121" r="50" fill="#f5b7b7" /><path  d="M 6.47213595499958 78.94427190999916 L 61.52786404500042 189.05572809000085 Q 66 198 56 198 L -52 198 Q -62 198 -57.52786404500042 189.05572809000085 L -2.4721359549995796 78.94427190999916 Q 2 70 6.47213595499958 78.94427190999916 Z" fill="#a4d1e0"  transform="rotate(248.74949449286675,2,134)" /><rect  x="182" y="32" width="80.97164938406935" height="52.02415981104252" fill="#9dd793" transform="rotate(323.8646233884108,222.48582469203467,58.01207990552126)" /><line x1="189" y1="130" x2="211" y2="91" stroke="#83bcd4" fill="#83bcd4" stroke-width="38"  stroke-linecap="round" /><path  d="M 215.16227766016837 60.48683298050514 L 240.83772233983163 137.51316701949486 Q 244 147 247.16227766016837 137.51316701949486 L 256.8377223398316 108.48683298050514 Q 260 99 269.48683298050514 95.83772233983161 L 298.51316701949486 86.16227766016839 Q 308 83 298.51316701949486 79.83772233983161 L 221.48683298050514 54.16227766016838 Q 212 51 215.16227766016837 60.48683298050514 Z" fill="#d291bc"  transform="rotate(156.3706222693432,260,99)" /><path  d="M 323.4721359549996 -33.05572809000084 L 330.5278640450004 -18.94427190999916 Q 335 -10 345 -10 L 357 -10 Q 367 -10 360.5981560033552 -2.3177872040262413 L 348.4018439966448 12.317787204026242 Q 342 20 344.80898753270714 29.597374070082708 L 351.19101246729286 51.40262592991729 Q 354 61 345.6429452029873 55.50822113339163 L 327.3570547970127 43.49177886660837 Q 319 38 310.6429452029873 43.49177886660837 L 292.3570547970127 55.50822113339163 Q 284 61 286.5335939183768 51.32627776619755 L 292.4664060816232 28.67372223380245 Q 295 19 288.62432285965775 11.296056788753102 L 277.37567714034225 -2.296056788753102 Q 271 -10 281 -10 L 293 -10 Q 303 -10 307.4721359549996 -18.94427190999916 L 314.5278640450004 -33.05572809000084 Q 319 -42 323.4721359549996 -33.05572809000084 Z" fill="#b1dee0"  transform="rotate(155.00669473774028,319,9.5)" /><circle  cx="196" cy="17" r="32.69556544854363" fill="#f6cacb" /><ellipse cx="7" cy="0" rx="81" ry="30" fill="#fec8d8" transform="rotate(12.380756928807177,7,0)" /><line x1="316" y1="78" x2="342" y2="89" stroke="#d6f7d2" fill="#d6f7d2" stroke-width="22.686270006394572"  stroke-linecap="round" /><circle  cx="400" cy="32" r="19.026297590440446" fill="#b1e1f1" /></svg>