<?xml version="1.0" encoding="UTF-8" standalone="yes"?><svg xmlns="http://www.w3.org/2000/svg" viewBox="0 0 512 512"><path  d="M 32 111 L 32 401 Q 32 416 32 431 Q 32 480 81 480 Q 96 480 111 480 L 401 480 Q 416 480 431 480 Q 480 480 480 431 Q 480 416 480 401 L 480 111 Q 480 96 480 81 Q 480 32 431 32 Q 416 32 401 32 L 111 32 Q 96 32 81 32 Q 32 32 32 81 Q 32 96 32 111 Z" fill="#ffffff" /><circle  cx="256" cy="256" r="80" fill="#000000" /><line x1="256" y1="96" x2="256" y2="144" stroke="#000000" fill="#000000" stroke-width="28"  stroke-linecap="round" /><line x1="256" y1="368" x2="256" y2="416" stroke="#000000" fill="#000000" stroke-width="28"  stroke-linecap="round" /><line x1="368" y1="256" x2="416" y2="256" stroke="#000000" fill="#000000" stroke-width="28"  stroke-linecap="round" /><line x1="96" y1="256" x2="144" y2="256" stroke="#000000" fill="#000000" stroke-width="28"  stroke-linecap="round" /><line x1="144" y1="144" x2="176" y2="176" stroke="#000000" fill="#000000" stroke-width="28"  stroke-linecap="round" /><line x1="368" y1="144" x2="336" y2="176" stroke="#000000" fill="#000000" stroke-width="28"  stroke-linecap="round" /><line x1="336" y1="336" x2="368" y2="368" stroke="#000000" fill="#000000" stroke-width="28"  stroke-linecap="round" /><line x1="176" y1="336" x2="144" y2="368" stroke="#000000" fill="#000000" stroke-width="28"  stroke-linecap="round" /></svg>