<?xml version="1.0" encoding="UTF-8" standalone="yes"?><svg xmlns="http://www.w3.org/2000/svg" viewBox="0 0 512 512"><path  d="M 243.33776932537376 426.08046920896084 L 280.2946983064792 418.68908341273976 Q 290.10050506338837 416.7279220613579 283.0294372515229 409.6568542494924 Q 267.4730880654189 394.1005050633884 265.66419284950604 363.6564928292413 Q 265.07106781186553 353.67409819219534 255.56570070678308 356.78022056544734 Q 149.47308806541898 391.44870144777906 142.5714190302543 292.5716158188373 Q 141.87510831897234 282.59588770539347 147.87510831897234 282.59588770539347 L 151.87510831897234 282.59588770539347 Q 157.87510831897234 282.59588770539347 167.87510831897234 282.59588770539347 Q 205.8751083189723 282.59588770539347 179.42211028122463 242.9163906487719 Q 173.87510831897234 234.59588770539347 168.32810635672004 226.27538476201502 Q 141.87510831897234 186.59588770539347 115.4221102812246 146.9163906487719 Q 109.87510831897231 138.59588770539347 104.32810635672001 146.9163906487719 Q 77.87510831897228 186.59588770539347 51.4221102812246 226.27538476201502 Q 45.87510831897231 234.59588770539347 40.32810635672003 242.9163906487719 Q 13.875108318972394 282.59588770539347 51.87510831897234 282.59588770539347 Q 61.87510831897234 282.59588770539347 67.87510831897228 282.59588770539347 L 71.87510831897234 282.59588770539347 Q 77.87510831897228 282.59588770539347 78.77993627599444 292.55486789255076 Q 92.90454557049517 448.01724394270286 223.63134694928192 429.44797701879327 Q 233.53196256846456 428.0416305603427 243.33776932537376 426.08046920896084 Z" fill="#575757"  transform="rotate(45,167.98780669118034,283.3187591328681)" /><line x1="448" y1="80" x2="224" y2="80" stroke="#575757" fill="#575757" stroke-width="70"  stroke-linecap="round" /><line x1="448" y1="336" x2="224" y2="336" stroke="#575757" fill="#575757" stroke-width="70"  stroke-linecap="round" /><line x1="448" y1="448" x2="224" y2="448" stroke="#575757" fill="#575757" stroke-width="70"  stroke-linecap="round" /></svg>