<?xml version="1.0" encoding="UTF-8" standalone="yes"?><svg xmlns="http://www.w3.org/2000/svg" viewBox="0 0 512 512"><path  d="M 114.58359213500127 38.708203932499366 Q 64 64 38.708203932499366 114.58359213500127 Q 32 128 32 143 L 32 369 Q 32 384 38.708203932499366 397.41640786499875 Q 64 448 114.58359213500127 473.2917960675006 Q 128 480 143 480 L 369 480 Q 384 480 397.41640786499875 473.2917960675006 Q 448 448 473.2917960675006 397.41640786499875 Q 480 384 480 369 L 480 143 Q 480 128 473.2917960675006 114.58359213500127 Q 448 64 397.41640786499875 38.708203932499366 Q 384 32 369 32 L 143 32 Q 128 32 114.58359213500127 38.708203932499366 Z" fill="#ffffff" stroke="#000000" stroke-width="50" /><path  d="M 332.1522543173616 351.3864703757651 Q 391.0525480567404 286.7470415149906 396.28954049904104 238.74753184847933 Q 397.9164626207442 223.83602205201964 395.6103440223123 209.01435490523866 Q 385.1757820092641 141.950325724342 318.6455746671932 139.26664457775928 Q 303.6577633210094 138.66206947803826 288.6877218484067 139.60962333326495 Q 221.9164626207442 143.83602205201964 165.3585466960967 242.81237492015276 Q 157.9164626207442 255.83602205201964 172.10913196280464 260.6907246121089 L 214.67062480696526 275.24918315798885 Q 228.8632941490257 280.1038857180781 234.964567669168 266.40080353075945 Q 253.9164626207442 223.83602205201964 287.6862131499865 212.57943854227221 Q 301.9164626207442 207.83602205201964 316.9164626207442 207.83602205201964 Q 349.9164626207442 207.83602205201964 349.9164626207442 240.83602205201964 Q 349.9164626207442 255.83602205201964 348.8760558218046 270.79989700781636 Q 346.1464591488175 310.0589092864439 328.31493017654697 348.8451434718912 Q 322.04928657170416 362.4738525162979 332.1522543173616 351.3864703757651 Z" fill="#000000"  transform="rotate(9,277.9164626207442,250.5679609971681)" /><path  d="M 64 218 L 258 218 Q 273 218 263.7908907972762 229.8402832606449 L 170.2091092027238 350.15971673935513 Q 161 362 151.7908907972762 350.15971673935513 L 58.20910920272381 229.8402832606449 Q 49 218 64 218 Z" fill="#000000"  transform="rotate(32,161,290)" /></svg>