<?xml version="1.0" encoding="UTF-8" standalone="yes"?><svg xmlns="http://www.w3.org/2000/svg" viewBox="0 0 512 512"><defs><mask id="1648477095568mask"><path d="M 111 32 L 337 32 Q 352 32 363 43 L 469 149 Q 480 160 480 175 L 480 401 Q 480 416 480 431 Q 480 480 431 480 Q 416 480 401 480 L 111 480 Q 96 480 81 480 Q 32 480 32 431 Q 32 416 32 401 L 32 111 Q 32 96 32 81 Q 32 32 81 32 Q 96 32 111 32 Z" fill="#ffffff" stroke="#ffffff" stroke-width="0" /><path d="M 111 416 L 401 416 Q 416 416 416 401 L 416 271 Q 416 256 401 256 L 111 256 Q 96 256 96 271 L 96 401 Q 96 416 111 416 Z" fill="#000000" stroke="#000000" stroke-width="1" /><path d="M 96 95 L 96 177 Q 96 192 111 192 L 305 192 Q 320 192 320 177 L 320 95 Q 320 80 305 80 L 111 80 Q 96 80 96 95 Z" fill="#000000" stroke="#000000" stroke-width="1" /></mask></defs><path mask="url(#1648477095568mask)" d="M 111 32 L 337 32 Q 352 32 363 43 L 469 149 Q 480 160 480 175 L 480 401 Q 480 416 480 431 Q 480 480 431 480 Q 416 480 401 480 L 111 480 Q 96 480 81 480 Q 32 480 32 431 Q 32 416 32 401 L 32 111 Q 32 96 32 81 Q 32 32 81 32 Q 96 32 111 32 Z" fill="#575757" /><line x1="160" y1="368" x2="352" y2="368" stroke="#575757" stroke-width="32" stroke-linecap="round" /><path d="M 208 101 A 32 32 0 0 0 272 101 Q 272 96 272 81 L 272 64 L 208 64 L 208 81 Q 208 96 208 101 Z" fill="#575757" /><line x1="160" y1="304" x2="352" y2="304" stroke="#575757" stroke-width="32" stroke-linecap="round" /></svg>