<?xml version="1.0" encoding="UTF-8" standalone="yes"?><svg xmlns="http://www.w3.org/2000/svg" viewBox="0 0 512 512">
    <defs>
        <radialGradient id="grad1" cx="20%" cy="20%" r="70%" fx="50%" fy="50%">
          <stop offset="20%" style="stop-color:rgb(190, 190, 190);" />
          <stop offset="90%" style="stop-color:rgb(163, 163, 163);" />
        </radialGradient>
    </defs>
    <path
        d="M 191 157 Q 230 76 244 70 Q 256 65 268 72 Q 281 79 319 158 Q 325 172 340 174 Q 414 182 438 195 Q 451 202 447 217 Q 442 236 380 293 Q 369 303 372 318 Q 387 401 383 419 Q 379 434 364 435 Q 339 438 270 395 Q 257 387 244 394 Q 166 438 146 436 Q 131 435 128 420 Q 122 392 137 319 Q 140 304 129 294 Q 67 239 63 213 Q 61 198 74 191 Q 98 179 169 172 Q 184 171 191 157 Z"
        fill="url(#grad1)" />
</svg>