<?xml version="1.0" encoding="UTF-8" standalone="yes"?><svg xmlns="http://www.w3.org/2000/svg" viewBox="0 0 512 512"><defs><mask id="1648555935944mask"><path d="M 32 81 Q 32 32 81 32 Q 96 32 111 32 L 305 32 Q 320 32 335 32 Q 384 32 384 81 Q 384 96 384 111 L 384 305 Q 384 320 384 335 Q 384 384 335 384 Q 320 384 305 384 L 111 384 Q 96 384 81 384 Q 32 384 32 335 Q 32 320 32 305 L 32 111 Q 32 96 32 81 Z" fill="#ffffff" stroke="#ffffff" stroke-width="0" /><path d="M 96 416 L 96 175 Q 96 160 96 145 Q 96 96 145 96 Q 160 96 175 96 L 416 96 L 416 416 L 96 416 Z" fill="#000000" stroke="#000000" stroke-width="1" /></mask></defs><path mask="url(#1648555935944mask)" d="M 32 81 Q 32 32 81 32 Q 96 32 111 32 L 305 32 Q 320 32 335 32 Q 384 32 384 81 Q 384 96 384 111 L 384 305 Q 384 320 384 335 Q 384 384 335 384 Q 320 384 305 384 L 111 384 Q 96 384 81 384 Q 32 384 32 335 Q 32 320 32 305 L 32 111 Q 32 96 32 81 Z" fill="#575757" /><path d="M 128 177 Q 128 128 177 128 Q 192 128 207 128 L 401 128 Q 416 128 431 128 Q 480 128 480 177 Q 480 192 480 207 L 480 401 Q 480 416 480 431 Q 480 480 431 480 Q 416 480 401 480 L 207 480 Q 192 480 177 480 Q 128 480 128 431 Q 128 416 128 401 L 128 207 Q 128 192 128 177 Z" fill="#b0b0b0" /></svg>