<?xml version="1.0" encoding="UTF-8" standalone="yes"?><svg xmlns="http://www.w3.org/2000/svg" viewBox="0 0 512 512"><path d="M 96 143 L 96 401 Q 96 416 96 431 Q 96 480 145 480 Q 160 480 175 480 L 337 480 Q 352 480 367 480 Q 416 480 416 431 Q 416 416 416 401 L 416 143 Q 416 128 401 128 L 111 128 Q 96 128 96 143 Z" fill="#b0b0b0" /><path d="M 64 111 L 64 145 Q 64 160 79 160 L 433 160 Q 448 160 448 145 L 448 111 Q 448 96 433 96 L 79 96 Q 64 96 64 111 Z" fill="#575757" /><line x1="160" y1="224" x2="160" y2="416" stroke="#7d7d7d" stroke-width="50" stroke-linecap="round" /><line x1="256" y1="224" x2="256" y2="416" stroke="#7d7d7d" stroke-width="50" stroke-linecap="round" /><line x1="352" y1="224" x2="352" y2="416" stroke="#7d7d7d" stroke-width="50" stroke-linecap="round" /><path d="M 192 81 L 192 79 Q 192 64 207 64 L 305 64 Q 320 64 320 79 L 320 128 L 352 128 L 352 47 Q 352 32 337 32 L 175 32 Q 160 32 160 47 L 160 128 L 192 128 L 192 111 Q 192 96 192 81 Z" fill="#575757" /></svg>