<?xml version="1.0" encoding="UTF-8" standalone="yes"?><svg xmlns="http://www.w3.org/2000/svg" viewBox="0 0 512 512"><defs><mask id="1648558196765mask"><path d="M 64 175 L 64 337 Q 64 352 64 367 Q 64 416 113 416 Q 128 416 143 416 L 369 416 Q 384 416 399 416 Q 448 416 448 367 Q 448 352 448 337 L 448 175 Q 448 160 448 145 Q 448 96 399 96 Q 384 96 369 96 L 143 96 Q 128 96 113 96 Q 64 96 64 145 Q 64 160 64 175 Z" fill="#ffffff" stroke="#ffffff" stroke-width="0" /><path d="M 96 175 L 96 337 Q 96 352 96 367 Q 96 384 113 384 Q 128 384 143 384 L 369 384 Q 384 384 399 384 Q 416 384 416 367 Q 416 352 416 337 L 416 175 Q 416 160 416 145 Q 416 128 399 128 Q 384 128 369 128 L 143 128 Q 128 128 113 128 Q 96 128 96 145 Q 96 160 96 175 Z" fill="#000000" stroke="#000000" stroke-width="1" /><circle cx="128" cy="384" r="96" fill="#000000" stroke="#000000" stroke-width="1" /></mask></defs><path mask="url(#1648558196765mask)" d="M 64 175 L 64 337 Q 64 352 64 367 Q 64 416 113 416 Q 128 416 143 416 L 369 416 Q 384 416 399 416 Q 448 416 448 367 Q 448 352 448 337 L 448 175 Q 448 160 448 145 Q 448 96 399 96 Q 384 96 369 96 L 143 96 Q 128 96 113 96 Q 64 96 64 145 Q 64 160 64 175 Z" fill="#575757" /><defs><mask id="1648557718983mask"><path d="M 143 352 L 369 352 Q 384 352 376 340 L 328 268 Q 320 256 309 267 L 283 293 Q 272 304 265 291 L 215 205 Q 208 192 201 205 L 135 339 Q 128 352 143 352 Z" fill="#ffffff" stroke="#ffffff" stroke-width="0" /><circle cx="128" cy="384" r="96" fill="#000000" stroke="#000000" stroke-width="1" /></mask></defs><path mask="url(#1648557718983mask)" d="M 143 352 L 369 352 Q 384 352 376 340 L 328 268 Q 320 256 309 267 L 283 293 Q 272 304 265 291 L 215 205 Q 208 192 201 205 L 135 339 Q 128 352 143 352 Z" fill="#575757" /><circle cx="345" cy="196" r="39" fill="#575757" /><path d="M 112 368 L 112 335 Q 112 320 127 320 L 129 320 Q 144 320 144 335 L 144 368 L 177 368 Q 192 368 192 383 L 192 385 Q 192 400 177 400 L 144 400 L 144 433 Q 144 448 129 448 L 127 448 Q 112 448 112 433 L 112 400 L 79 400 Q 64 400 64 385 L 64 383 Q 64 368 79 368 L 112 368 Z" fill="#575757" /></svg>