<?xml version="1.0" encoding="UTF-8" standalone="yes"?><svg xmlns="http://www.w3.org/2000/svg" viewBox="0 0 512 512"><path  d="M 106 448 L 118 448 Q 128 448 128 438 Q 128 416 151.05572809000085 404.4721359549996 Q 160 400 160 390 L 160 170 Q 160 160 170 160 L 182 160 Q 192 160 202 160 Q 256 160 231.07106781186548 135.07106781186548 Q 224 128 216.92893218813452 120.92893218813452 Q 160 64 133.5470019622523 24.320502943378436 Q 128 16 122.4529980377477 24.320502943378436 Q 96 64 39.071067811865476 120.92893218813452 Q 32 128 24.928932188134524 135.07106781186548 Q 0 160 54 160 Q 64 160 74 160 L 86 160 Q 96 160 96 170 L 96 438 Q 96 448 106 448 Z" fill="#575757" /><line x1="464" y1="224" x2="240" y2="224" stroke="#575757" fill="#575757" stroke-width="70"  stroke-linecap="round" /><line x1="464" y1="336" x2="240" y2="336" stroke="#575757" fill="#575757" stroke-width="70"  stroke-linecap="round" /><line x1="400" y1="448" x2="176" y2="448" stroke="#575757" fill="#575757" stroke-width="70"  stroke-linecap="round" /></svg>