<?xml version="1.0" encoding="UTF-8" standalone="yes"?><svg xmlns="http://www.w3.org/2000/svg" viewBox="0 0 512 512"><defs><mask id="1643555411582mask"><path  d="M 64 47 L 64 401 Q 64 416 64 431 Q 64 480 113 480 Q 128 480 143 480 L 369 480 Q 384 480 399 480 Q 448 480 448 431 Q 448 416 448 401 L 448 47 Q 448 32 433 32 L 79 32 Q 64 32 64 47 Z" fill="#ffffff" stroke="#ffffff" stroke-width="30" /><path  d="M 79 32 L 433 32 Q 448 32 448 47 L 448 193 Q 448 208 439.6794970566216 220.48075441506765 Q 416 256 392.3205029433784 220.48075441506765 Q 384 208 370.58359213500125 214.70820393249937 Q 352 224 333.41640786499875 214.70820393249937 Q 320 208 311.6794970566216 195.51924558493235 Q 288 160 264.3205029433784 195.51924558493235 Q 256 208 242.58359213500125 214.70820393249937 Q 224 224 205.41640786499875 214.70820393249937 Q 192 208 183.67949705662156 195.51924558493235 Q 160 160 136.32050294337844 195.51924558493235 Q 128 208 119.67949705662156 220.48075441506765 Q 96 256 72.32050294337844 220.48075441506765 Q 64 208 64 193 L 64 47 Q 64 32 79 32 Z" fill="#000000" stroke="#000000" stroke-width="1" /></mask></defs><path mask="url(#1643555411582mask)" d="M 64 47 L 64 401 Q 64 416 64 431 Q 64 480 113 480 Q 128 480 143 480 L 369 480 Q 384 480 399 480 Q 448 480 448 431 Q 448 416 448 401 L 448 47 Q 448 32 433 32 L 79 32 Q 64 32 64 47 Z" fill="#ffffff" stroke="#000000" stroke-width="30" /></svg>