<?xml version="1.0" encoding="UTF-8" standalone="yes"?><svg xmlns="http://www.w3.org/2000/svg" viewBox="0 0 512 512"><path  d="M 32 111 L 32 401 Q 32 416 32 431 Q 32 480 81 480 Q 96 480 111 480 L 401 480 Q 416 480 431 480 Q 480 480 480 431 Q 480 416 480 401 L 480 111 Q 480 96 480 81 Q 480 32 431 32 Q 416 32 401 32 L 111 32 Q 96 32 81 32 Q 32 32 32 81 Q 32 96 32 111 Z" fill="#1e1e1e" /><defs><mask id="1643481199911mask"><circle  cx="240" cy="240" r="173.0664612222715" fill="#ffffff" stroke="#ffffff" stroke-width="0" /><circle  cx="64" cy="240" r="224" fill="#000000" stroke="#000000" stroke-width="1" /></mask></defs><circle mask="url(#1643481199911mask)" cx="240" cy="240" r="173.0664612222715" fill="#ffffff" transform="rotate(31,240,240)" /></svg>