<?xml version="1.0" encoding="UTF-8" standalone="yes"?><svg xmlns="http://www.w3.org/2000/svg" viewBox="0 0 512 512"><path  d="M 32 362 L 32 406 Q 32 416 32 426 Q 32 480 86 480 Q 96 480 106 480 L 406 480 Q 416 480 426 480 Q 480 480 480 426 Q 480 416 480 406 L 480 362 Q 480 352 470 352 L 426 352 Q 416 352 416 362 L 416 406 Q 416 416 406 416 L 106 416 Q 96 416 96 406 L 96 362 Q 96 352 86 352 L 74 352 Q 64 352 64 352 Q 64 352 42 352 Q 32 352 32 362 Z" fill="#58a739" /><path  d="M 262 376 L 346 264 Q 352 256 342 256 L 314 256 Q 304 256 304 246 L 304 42 Q 304 32 294 32 L 218 32 Q 208 32 208 42 L 208 246 Q 208 256 198 256 L 170 256 Q 160 256 166 264 L 250 376 Q 256 384 262 376 Z" fill="#58a739" /></svg>