<?xml version="1.0" encoding="UTF-8" standalone="yes"?><svg xmlns="http://www.w3.org/2000/svg" viewBox="0 0 512 512"><path d="M 369 230 L 414 313 L 501 328 Q 516 331 506 342 L 444 405 L 457 499 Q 459 514 446 507 L 362 463 L 282 503 Q 269 510 271 495 L 281 404 L 222 341 Q 212 330 227 327 L 314 310 L 355 230 Q 362 217 369 230 Z" fill="#575757" /><defs><mask id="1648473586708mask"><path d="M 30 321 Q 55 372 140 457 Q 151 468 162 457 Q 247 372 272 321 Q 279 308 281 304 A 71.55417527999327 71.55417527999327 0 0 0 153 240 Q 151 244 149 240 A 71.55417527999327 71.55417527999327 0 0 0 21 304 Q 23 308 30 321 Z" fill="#ffffff" stroke="#ffffff" stroke-width="0" /><circle cx="354" cy="431" r="187" fill="#000000" stroke="#000000" stroke-width="1" /></mask></defs><path mask="url(#1648473586708mask)" d="M 30 321 Q 55 372 140 457 Q 151 468 162 457 Q 247 372 272 321 Q 279 308 281 304 A 71.55417527999327 71.55417527999327 0 0 0 153 240 Q 151 244 149 240 A 71.55417527999327 71.55417527999327 0 0 0 21 304 Q 23 308 30 321 Z" fill="#575757" stroke="#ffffff" stroke-width="0" /><defs><mask id="1648474765641mask"><path d="M 320 -5 L 351 41 Q 360 53 375 50 L 427 37 Q 442 34 439 49 L 430 99 Q 427 114 439 123 L 480 153 Q 492 162 480 171 L 425 213 L 436 277 Q 439 292 424 290 L 358 281 L 195 116 L 187 51 Q 185 36 200 39 L 248 47 Q 263 50 272 38 L 302 -5 Q 311 -17 320 -5 Z" fill="#ffffff" stroke="#ffffff" stroke-width="0" /><circle cx="209" cy="263" r="151" fill="#000000" stroke="#000000" stroke-width="1" /></mask></defs><path mask="url(#1648474765641mask)" d="M 320 -5 L 360 53 L 427 37 Q 442 34 439 49 L 427 114 L 480 153 Q 492 162 480 171 L 425 213 L 436 277 Q 439 292 424 290 L 358 281 L 195 116 L 187 51 Q 185 36 200 39 L 263 50 L 302 -5 Q 311 -17 320 -5 Z" fill="#575757" transform="rotate(332,338.5,137.5)" /></svg>