<?xml version="1.0" encoding="UTF-8" standalone="yes"?><svg xmlns="http://www.w3.org/2000/svg" viewBox="0 0 512 512"><path  d="M 64 186 L 64 326 Q 64 336 71.07106781186548 343.0710678118655 L 168.92893218813452 440.9289321881345 Q 176 448 186 448 L 326 448 Q 336 448 343.0710678118655 440.9289321881345 L 440.9289321881345 343.0710678118655 Q 448 336 448 326 L 448 186 Q 448 176 440.9289321881345 168.92893218813452 L 343.0710678118655 71.07106781186548 Q 336 64 326 64 L 186 64 Q 176 64 168.92893218813452 71.07106781186548 L 71.07106781186548 168.92893218813452 Q 64 176 64 186 Z" fill="#ffffff" /><rect  x="192" y="192" width="128" height="128" fill="#575757" /><defs><mask id="1642699963475mask"><rect  x="320" y="320" width="128" height="128" fill="#ffffff" stroke="#ffffff" stroke-width="0" /><path  d="M 394 464 L 454 464 Q 464 464 464 454 L 464 394 Q 464 384 458 384 L 454 384 Q 448 384 448 394 Q 448 448 394 448 Q 384 448 384 454 L 384 458 Q 384 464 394 464 Z" fill="#000000" stroke="#000000" stroke-width="1" /></mask></defs><rect mask="url(#1642699963475mask)" x="320" y="320" width="128" height="128" fill="#575757" /><defs><mask id="1642699630561mask"><rect  x="320" y="64" width="128" height="128" fill="#ffffff" stroke="#ffffff" stroke-width="0" /><path  d="M 394 208 L 454 208 Q 464 208 464 198 L 464 138 Q 464 128 458 128 L 454 128 Q 448 128 448 138 Q 448 192 394 192 Q 384 192 384 198 L 384 202 Q 384 208 394 208 Z" fill="#000000" stroke="#000000" stroke-width="1" /></mask></defs><rect mask="url(#1642699630561mask)" x="320" y="64" width="128" height="128" fill="#575757" transform="rotate(270,384,128)" /><defs><mask id="1642699628762mask"><rect  x="64" y="64" width="128" height="128" fill="#ffffff" stroke="#ffffff" stroke-width="0" /><path  d="M 138 208 L 198 208 Q 208 208 208 198 L 208 138 Q 208 128 202 128 L 198 128 Q 192 128 192 138 Q 192 192 138 192 Q 128 192 128 198 L 128 202 Q 128 208 138 208 Z" fill="#000000" stroke="#000000" stroke-width="1" /></mask></defs><rect mask="url(#1642699628762mask)" x="64" y="64" width="128" height="128" fill="#575757" transform="rotate(180,128,128)" /><defs><mask id="1642699770708mask"><rect  x="64" y="320" width="128" height="128" fill="#ffffff" stroke="#ffffff" stroke-width="0" /><path  d="M 138 464 L 198 464 Q 208 464 208 454 L 208 394 Q 208 384 202 384 L 198 384 Q 192 384 192 394 Q 192 448 138 448 Q 128 448 128 454 L 128 458 Q 128 464 138 464 Z" fill="#000000" stroke="#000000" stroke-width="1" /></mask></defs><rect mask="url(#1642699770708mask)" x="64" y="320" width="128" height="128" fill="#575757" transform="rotate(90,128,384)" /></svg>