<?xml version="1.0" encoding="UTF-8" standalone="yes"?><svg xmlns="http://www.w3.org/2000/svg" viewBox="0 0 512 512"><path  d="M 106 64 L 118 64.00000000000001 Q 128 64.00000000000001 128 74.00000000000001 Q 128.00000000000003 96 151.05572809000088 107.52786404500043 Q 160.00000000000003 112.00000000000001 160.00000000000003 122.00000000000001 L 159.99999999999997 246 Q 159.99999999999997 256 169.99999999999997 256 L 181.99999999999997 256 Q 191.99999999999997 256 201.99999999999997 256 Q 255.99999999999997 256 231.07106781186545 280.9289321881345 Q 223.99999999999997 288 216.9289321881345 295.0710678118655 Q 159.99999999999997 352 133.54700196225227 391.6794970566216 Q 127.99999999999997 400 122.45299803774768 391.6794970566216 Q 95.99999999999997 352 39.07106781186545 295.0710678118655 Q 31.99999999999997 288 24.928932188134496 280.9289321881345 Q -2.842170943040401e-14 256 53.99999999999997 256 Q 63.99999999999997 256 73.99999999999997 256 L 85.99999999999997 256 Q 95.99999999999997 256 95.99999999999997 246 L 96 74 Q 96 64 106 64 Z" fill="#575757" /><line x1="448" y1="176" x2="224" y2="176" stroke="#575757" fill="#575757" stroke-width="70"  stroke-linecap="round" /><line x1="448" y1="448" x2="224" y2="448" stroke="#575757" fill="#575757" stroke-width="70"  stroke-linecap="round" /><line x1="400" y1="64" x2="176" y2="64" stroke="#575757" fill="#575757" stroke-width="70"  stroke-linecap="round" /></svg>