<?xml version="1.0" encoding="UTF-8" standalone="yes"?><svg xmlns="http://www.w3.org/2000/svg" viewBox="0 0 512 512"><path  d="M 249.8058067569092 97.96116135138185 L 286.7627357380146 105.35254714760295 Q 296.5685424949238 107.3137084989848 289.49747468305833 114.38477631085027 Q 273.9411254969543 129.94112549695427 272.1322302810415 160.3851377311014 Q 271.53910524340097 170.36753236814735 262.03373813831854 167.2614099948954 Q 155.9411254969544 132.59292911256364 149.03945646178974 231.4700147415054 Q 148.34314575050777 241.44574285494923 154.34314575050777 241.44574285494923 L 158.34314575050777 241.44574285494923 Q 164.34314575050777 241.44574285494923 174.34314575050777 241.44574285494923 Q 212.34314575050774 241.44574285494923 185.89014771276007 281.1252399115708 Q 180.34314575050777 289.44574285494923 174.79614378825548 297.76624579832765 Q 148.34314575050777 337.44574285494923 121.89014771276004 377.1252399115708 Q 116.34314575050774 385.44574285494923 110.79614378825545 377.1252399115708 Q 84.34314575050772 337.44574285494923 57.89014771276003 297.76624579832765 Q 52.343145750507745 289.44574285494923 46.79614378825546 281.1252399115708 Q 20.34314575050783 241.44574285494923 58.34314575050777 241.44574285494923 Q 68.34314575050777 241.44574285494923 74.34314575050772 241.44574285494923 L 78.34314575050777 241.44574285494923 Q 84.34314575050772 241.44574285494923 85.24797370752988 231.48676266779196 Q 99.37258300203061 76.02438661763983 230.09938438081736 94.5936535415494 Q 240 96 249.8058067569092 97.96116135138185 Z" fill="#575757"  transform="rotate(315,174.45584412271577,240.72287142747462)" /><line x1="448" y1="64" x2="224" y2="64" stroke="#575757" fill="#575757" stroke-width="70"  stroke-linecap="round" /><line x1="448" y1="176" x2="224" y2="176" stroke="#575757" fill="#575757" stroke-width="70"  stroke-linecap="round" /><line x1="448" y1="432" x2="224" y2="432" stroke="#575757" fill="#575757" stroke-width="70"  stroke-linecap="round" /></svg>