<?xml version="1.0" encoding="UTF-8" standalone="yes"?><svg xmlns="http://www.w3.org/2000/svg" viewBox="0 0 512 512"><path  d="M 106 448 L 118 448 Q 128 448 128 438 Q 128.00000000000003 416 151.05572809000085 404.4721359549996 Q 160.00000000000003 400 160.00000000000003 390 L 159.99999999999997 266 Q 159.99999999999997 256 169.99999999999997 256 L 181.99999999999997 256 Q 191.99999999999997 256 201.99999999999997 256 Q 255.99999999999997 256 231.07106781186545 231.07106781186548 Q 223.99999999999997 224 216.9289321881345 216.92893218813452 Q 159.99999999999997 160 133.54700196225227 120.32050294337844 Q 127.99999999999997 112 122.45299803774768 120.32050294337844 Q 95.99999999999997 160 39.07106781186545 216.92893218813452 Q 31.99999999999997 224 24.928932188134496 231.07106781186548 Q -2.842170943040401e-14 256 53.99999999999997 256 Q 63.99999999999997 256 73.99999999999997 256 L 85.99999999999997 256 Q 95.99999999999997 256 95.99999999999997 266 L 96 438 Q 96 448 106 448 Z" fill="#575757" /><line x1="448" y1="64" x2="224" y2="64" stroke="#575757" fill="#575757" stroke-width="70"  stroke-linecap="round" /><line x1="448" y1="336" x2="224" y2="336" stroke="#575757" fill="#575757" stroke-width="70" stroke-linecap="round" /><line x1="400" y1="448" x2="176" y2="448" stroke="#575757" fill="#575757" stroke-width="70"  stroke-linecap="round" /></svg>