<?xml version="1.0" encoding="UTF-8" standalone="yes"?><svg xmlns="http://www.w3.org/2000/svg" viewBox="0 0 512 512"><path  d="M 265.0795938450045 491.80941822538256 Q 464 400 464 138 Q 464 128 454.29857499854666 125.57464374963666 Q 336 96 263.8086880944303 38.246950475544246 Q 256 32 248.1913119055697 38.246950475544246 Q 176 96 57.701425001453316 125.57464374963666 Q 48 128 48 138 Q 48 400 246.92040615499548 491.80941822538256 Q 256 496 265.0795938450045 491.80941822538256 Z" fill="#a3a3a3" /><path  d="M 186 384 L 326 384 Q 336 384 336 374 L 336 170 Q 336 160 326 160 L 314 160 Q 304 160 304 150 L 304 138 Q 304 128 294 128 L 218 128 Q 208 128 208 138 L 208 150 Q 208 160 198 160 L 186 160 Q 176 160 176 170 L 176 374 Q 176 384 186 384 Z" fill="#ffffff" /><path  d="M 202 368 L 310 368 Q 320 368 320 358 L 320 330 Q 320 320 310 320 L 202 320 Q 192 320 192 330 L 192 358 Q 192 368 202 368 Z" fill="#ff9500" /></svg>