<?xml version="1.0" encoding="UTF-8" standalone="yes"?><svg xmlns="http://www.w3.org/2000/svg" viewBox="0 0 512 512"><path d="M 32 143 L 32 369 Q 32 384 39 397 Q 64 448 115 473 Q 128 480 143 480 L 369 480 Q 384 480 397 473 Q 448 448 473 397 Q 480 384 480 369 L 480 143 Q 480 128 473 115 Q 448 64 397 39 Q 384 32 369 32 L 143 32 Q 128 32 115 39 Q 64 64 39 115 Q 32 128 32 143 Z" fill="#ffffff" stroke="#000000" stroke-width="50" /><path d="M 399 385 L 385 223 Q 384 208 373 219 L 219 373 Q 208 384 223 385 L 385 399 Q 400 400 399 385 Z" fill="#000000" /><rect x="160" y="224" width="192" height="64" fill="#000000" transform="rotate(45,256,256)" /><path d="M 113 127 L 127 289 Q 128 304 139 293 L 293 139 Q 304 128 289 127 L 127 113 Q 112 112 113 127 Z" fill="#000000" /></svg>