<?xml version="1.0" encoding="UTF-8" standalone="yes"?><svg xmlns="http://www.w3.org/2000/svg" viewBox="0 0 512 512"><path d="M 267 357 L 325 299 Q 336 288 347 277 Q 368 256 335 256 Q 320 256 305 256 L 303 256 Q 288 256 288 241 L 288 63 Q 288 48 288 47 Q 288 32 273 32 Q 272 32 257 32 L 255 32 Q 240 32 239 32 Q 224 32 224 47 Q 224 48 224 63 L 224 241 Q 224 256 209 256 L 207 256 Q 192 256 177 256 Q 144 256 165 277 Q 176 288 187 299 L 245 357 Q 256 368 267 357 Z" fill="#575757" /><path d="M 159 416 L 353 416 Q 368 416 368 401 L 368 383 Q 368 368 383 368 L 433 368 Q 448 368 448 383 L 448 449 Q 448 464 433 464 L 79 464 Q 64 464 64 449 L 64 383 Q 64 368 79 368 L 129 368 Q 144 368 144 383 L 144 401 Q 144 416 159 416 Z" fill="#575757" /></svg>