<?xml version="1.0" encoding="UTF-8" standalone="yes"?><svg xmlns="http://www.w3.org/2000/svg" viewBox="0 0 512 512"><path  d="M 106 64 L 118 64 Q 128 64 128 74 Q 128 96 151.05572809000085 107.52786404500043 Q 160 112 160 122 L 160 342 Q 160 352 170 352 L 182 352 Q 192 352 202 352 Q 256 352 231.07106781186548 376.9289321881345 Q 224 384 216.92893218813452 391.0710678118655 Q 160 448 133.5470019622523 487.6794970566216 Q 128 496 122.4529980377477 487.6794970566216 Q 96 448 39.071067811865476 391.0710678118655 Q 32 384 24.928932188134524 376.9289321881345 Q 0 352 54 352 Q 64 352 74 352 L 86 352 Q 96 352 96 342 L 96 74 Q 96 64 106 64 Z" fill="#575757" /><line x1="464" y1="176" x2="240" y2="176" stroke="#575757" fill="#575757" stroke-width="70"  stroke-linecap="round" /><line x1="464" y1="288" x2="240" y2="288" stroke="#575757" fill="#575757" stroke-width="70"  stroke-linecap="round" /><line x1="400" y1="64" x2="176" y2="64" stroke="#575757" fill="#575757" stroke-width="70"  stroke-linecap="round" /></svg>