<?xml version="1.0" encoding="UTF-8" standalone="yes"?><svg xmlns="http://www.w3.org/2000/svg" viewBox="0 0 512 512"><path  d="M 216.92893218813452 456.9289321881345 L 199.07106781186548 439.0710678118655 Q 192 432 199.07106781186548 424.9289321881345 L 344.9289321881345 279.0710678118655 Q 352 272 359.0710678118655 264.9289321881345 Q 416 208 359.0710678118655 151.07106781186548 Q 352 144 344.9289321881345 136.92893218813452 Q 288 80 231.07106781186548 136.92893218813452 Q 224 144 216.92893218813452 151.07106781186548 L 215.07106781186548 152.92893218813452 Q 208 160 200.92893218813452 152.92893218813452 L 183.07106781186548 135.07106781186548 Q 176 128 183.07106781186548 120.92893218813452 L 184.92893218813452 119.07106781186548 Q 192 112 199.07106781186548 104.92893218813452 Q 288 16 376.9289321881345 104.92893218813452 Q 384 112 391.0710678118655 119.07106781186548 Q 480 208 391.0710678118655 296.9289321881345 Q 384 304 376.9289321881345 311.0710678118655 L 231.07106781186548 456.9289321881345 Q 224 464 216.92893218813452 456.9289321881345 Z" fill="#575757" stroke="#575757" stroke-width="10" /><path  d="M 167.07106781186548 87.07106781186548 L 248.92893218813452 168.92893218813452 Q 256 176 263.0710678118655 183.07106781186548 Q 288 208 264.94427190999915 219.52786404500043 Q 256 224 246 224 L 122 224 Q 112 224 112 214 L 112 90 Q 112 80 116.47213595499957 71.05572809000084 Q 128 48 152.92893218813452 72.92893218813452 Q 160 80 167.07106781186548 87.07106781186548 Z" fill="#575757" /></svg>